<mxfile host="app.diagrams.net" agent="Mozilla/5.0 (Windows NT 10.0; Win64; x64) AppleWebKit/537.36 (KHTML, like Gecko) Chrome/130.0.0.0 Safari/537.36" version="24.8.3">
  <diagram name="Page-1" id="HFL9j15xXrTKbb--yS0u">
    <mxGraphModel dx="1647" dy="839" grid="1" gridSize="10" guides="1" tooltips="1" connect="1" arrows="1" fold="1" page="1" pageScale="1" pageWidth="850" pageHeight="1100" background="#FFFFFF" math="0" shadow="0">
      <root>
        <mxCell id="0" />
        <mxCell id="1" parent="0" />
        <mxCell id="Szl8Kn3uwm4iU1-1oAH0-1" value="" style="sketch=0;pointerEvents=1;shadow=0;dashed=0;html=1;strokeColor=none;fillColor=#FF8000;aspect=fixed;labelPosition=center;verticalLabelPosition=bottom;verticalAlign=top;align=center;outlineConnect=0;shape=mxgraph.vvd.nsx_edge_and_load_balancer;fillStyle=solid;" vertex="1" parent="1">
          <mxGeometry x="175" y="220" width="50" height="40.5" as="geometry" />
        </mxCell>
        <mxCell id="Szl8Kn3uwm4iU1-1oAH0-17" style="edgeStyle=orthogonalEdgeStyle;rounded=0;orthogonalLoop=1;jettySize=auto;html=1;" edge="1" parent="1" source="Szl8Kn3uwm4iU1-1oAH0-2" target="Szl8Kn3uwm4iU1-1oAH0-1">
          <mxGeometry relative="1" as="geometry" />
        </mxCell>
        <mxCell id="Szl8Kn3uwm4iU1-1oAH0-2" value="" style="sketch=0;pointerEvents=1;shadow=0;dashed=0;html=1;strokeColor=none;fillColor=#17FF1F;aspect=fixed;labelPosition=center;verticalLabelPosition=bottom;verticalAlign=top;align=center;outlineConnect=0;shape=mxgraph.vvd.horizon;" vertex="1" parent="1">
          <mxGeometry x="50" y="220" width="50" height="43.5" as="geometry" />
        </mxCell>
        <mxCell id="Szl8Kn3uwm4iU1-1oAH0-3" value="" style="sketch=0;pointerEvents=1;shadow=0;dashed=0;html=1;strokeColor=none;fillColor=#5340FF;aspect=fixed;labelPosition=center;verticalLabelPosition=bottom;verticalAlign=top;align=center;outlineConnect=0;shape=mxgraph.vvd.nsx_controller;" vertex="1" parent="1">
          <mxGeometry x="356" y="80" width="50" height="50" as="geometry" />
        </mxCell>
        <mxCell id="Szl8Kn3uwm4iU1-1oAH0-4" value="" style="sketch=0;pointerEvents=1;shadow=0;dashed=0;html=1;strokeColor=none;fillColor=#5340FF;aspect=fixed;labelPosition=center;verticalLabelPosition=bottom;verticalAlign=top;align=center;outlineConnect=0;shape=mxgraph.vvd.nsx_controller;" vertex="1" parent="1">
          <mxGeometry x="359" y="330" width="50" height="50" as="geometry" />
        </mxCell>
        <mxCell id="Szl8Kn3uwm4iU1-1oAH0-5" value="" style="sketch=0;pointerEvents=1;shadow=0;dashed=0;html=1;strokeColor=none;fillColor=#434445;aspect=fixed;labelPosition=center;verticalLabelPosition=bottom;verticalAlign=top;align=center;outlineConnect=0;shape=mxgraph.vvd.vm_group;" vertex="1" parent="1">
          <mxGeometry x="730" y="250" width="49.5" height="50" as="geometry" />
        </mxCell>
        <mxCell id="Szl8Kn3uwm4iU1-1oAH0-7" value="" style="sketch=0;pointerEvents=1;shadow=0;dashed=0;html=1;strokeColor=none;fillColor=#0feb34;aspect=fixed;labelPosition=center;verticalLabelPosition=bottom;verticalAlign=top;align=center;outlineConnect=0;shape=mxgraph.vvd.machine;" vertex="1" parent="1">
          <mxGeometry x="601" y="82" width="20.5" height="50" as="geometry" />
        </mxCell>
        <mxCell id="Szl8Kn3uwm4iU1-1oAH0-8" value="" style="sketch=0;pointerEvents=1;shadow=0;dashed=0;html=1;strokeColor=none;fillColor=#00FF00;aspect=fixed;labelPosition=center;verticalLabelPosition=bottom;verticalAlign=top;align=center;outlineConnect=0;shape=mxgraph.vvd.machine;" vertex="1" parent="1">
          <mxGeometry x="601" y="332" width="20.5" height="50" as="geometry" />
        </mxCell>
        <mxCell id="Szl8Kn3uwm4iU1-1oAH0-9" value="" style="sketch=0;pointerEvents=1;shadow=0;dashed=0;html=1;strokeColor=none;fillColor=#434445;aspect=fixed;labelPosition=center;verticalLabelPosition=bottom;verticalAlign=top;align=center;outlineConnect=0;shape=mxgraph.vvd.vm_group;" vertex="1" parent="1">
          <mxGeometry x="730" y="200" width="49.5" height="50" as="geometry" />
        </mxCell>
        <mxCell id="Szl8Kn3uwm4iU1-1oAH0-11" value="" style="image;aspect=fixed;perimeter=ellipsePerimeter;html=1;align=center;shadow=0;dashed=0;spacingTop=3;image=img/lib/active_directory/user.svg;" vertex="1" parent="1">
          <mxGeometry x="20" y="220" width="18.5" height="50" as="geometry" />
        </mxCell>
        <mxCell id="Szl8Kn3uwm4iU1-1oAH0-14" value="" style="edgeStyle=entityRelationEdgeStyle;fontSize=12;html=1;endArrow=ERoneToMany;startArrow=ERmandOne;rounded=0;" edge="1" parent="1" source="Szl8Kn3uwm4iU1-1oAH0-1" target="Szl8Kn3uwm4iU1-1oAH0-3">
          <mxGeometry width="100" height="100" relative="1" as="geometry">
            <mxPoint x="360" y="290" as="sourcePoint" />
            <mxPoint x="460" y="190" as="targetPoint" />
            <Array as="points">
              <mxPoint x="340" y="230" />
            </Array>
          </mxGeometry>
        </mxCell>
        <mxCell id="Szl8Kn3uwm4iU1-1oAH0-15" value="" style="edgeStyle=entityRelationEdgeStyle;fontSize=12;html=1;endArrow=ERoneToMany;rounded=0;" edge="1" parent="1" source="Szl8Kn3uwm4iU1-1oAH0-1" target="Szl8Kn3uwm4iU1-1oAH0-4">
          <mxGeometry width="100" height="100" relative="1" as="geometry">
            <mxPoint x="360" y="290" as="sourcePoint" />
            <mxPoint x="460" y="190" as="targetPoint" />
          </mxGeometry>
        </mxCell>
        <mxCell id="Szl8Kn3uwm4iU1-1oAH0-21" value="" style="sketch=0;pointerEvents=1;shadow=0;dashed=0;html=1;strokeColor=none;fillColor=#FF8000;aspect=fixed;labelPosition=center;verticalLabelPosition=bottom;verticalAlign=top;align=center;outlineConnect=0;shape=mxgraph.vvd.nsx_edge_and_load_balancer;fillStyle=solid;" vertex="1" parent="1">
          <mxGeometry x="510" y="220" width="50" height="40.5" as="geometry" />
        </mxCell>
        <mxCell id="Szl8Kn3uwm4iU1-1oAH0-26" value="" style="edgeStyle=entityRelationEdgeStyle;fontSize=12;html=1;endArrow=ERoneToMany;startArrow=ERmandOne;rounded=0;" edge="1" parent="1" source="Szl8Kn3uwm4iU1-1oAH0-4" target="Szl8Kn3uwm4iU1-1oAH0-21">
          <mxGeometry width="100" height="100" relative="1" as="geometry">
            <mxPoint x="235" y="250" as="sourcePoint" />
            <mxPoint x="366" y="115" as="targetPoint" />
            <Array as="points">
              <mxPoint x="350" y="240" />
            </Array>
          </mxGeometry>
        </mxCell>
        <mxCell id="Szl8Kn3uwm4iU1-1oAH0-27" value="" style="edgeStyle=entityRelationEdgeStyle;fontSize=12;html=1;endArrow=ERoneToMany;startArrow=ERmandOne;rounded=0;" edge="1" parent="1" source="Szl8Kn3uwm4iU1-1oAH0-3">
          <mxGeometry width="100" height="100" relative="1" as="geometry">
            <mxPoint x="370" y="260" as="sourcePoint" />
            <mxPoint x="510" y="240" as="targetPoint" />
            <Array as="points">
              <mxPoint x="350" y="240" />
            </Array>
          </mxGeometry>
        </mxCell>
        <mxCell id="Szl8Kn3uwm4iU1-1oAH0-28" value="" style="edgeStyle=entityRelationEdgeStyle;fontSize=12;html=1;endArrow=ERoneToMany;startArrow=ERmandOne;rounded=0;" edge="1" parent="1" source="Szl8Kn3uwm4iU1-1oAH0-21">
          <mxGeometry width="100" height="100" relative="1" as="geometry">
            <mxPoint x="235" y="250" as="sourcePoint" />
            <mxPoint x="600" y="110" as="targetPoint" />
            <Array as="points">
              <mxPoint x="350" y="240" />
            </Array>
          </mxGeometry>
        </mxCell>
        <mxCell id="Szl8Kn3uwm4iU1-1oAH0-29" value="" style="edgeStyle=entityRelationEdgeStyle;fontSize=12;html=1;endArrow=ERoneToMany;rounded=0;" edge="1" parent="1" source="Szl8Kn3uwm4iU1-1oAH0-21">
          <mxGeometry width="100" height="100" relative="1" as="geometry">
            <mxPoint x="235" y="250" as="sourcePoint" />
            <mxPoint x="600" y="360" as="targetPoint" />
          </mxGeometry>
        </mxCell>
        <mxCell id="Szl8Kn3uwm4iU1-1oAH0-30" value="&lt;div style=&quot;box-sizing: inherit; display: flex; flex: 0 1 auto; font-family: Metropolis, &amp;quot;Avenir Next&amp;quot;, &amp;quot;Helvetica Neue&amp;quot;, Arial, sans-serif; text-align: start; background-color: rgb(250, 250, 250);&quot; class=&quot;titles&quot;&gt;&lt;pre style=&quot;box-sizing: inherit; margin: 0px 0.3rem; font-family: var(--clr-h1-font-family,Metropolis,&amp;quot;Avenir Next&amp;quot;,&amp;quot;Helvetica Neue&amp;quot;,Arial,sans-serif); font-weight: var(--clr-h1-font-weight,200); line-height: 1.2rem; color: var(--clr-h1-color,#000); overflow: hidden; word-break: break-word;&quot;&gt;&lt;font style=&quot;font-size: 10px;&quot;&gt;U-UAG-VMC1-01&lt;/font&gt;&lt;/pre&gt;&lt;div style=&quot;font-size: 14px;&quot;&gt;&lt;br&gt;&lt;/div&gt;&lt;/div&gt;&lt;div style=&quot;box-sizing: inherit; display: flex; align-items: center; font-family: Metropolis, &amp;quot;Avenir Next&amp;quot;, &amp;quot;Helvetica Neue&amp;quot;, Arial, sans-serif; font-size: 14px; text-align: start; background-color: rgb(250, 250, 250);&quot; class=&quot;quick-operations-container ng-star-inserted&quot;&gt;&lt;/div&gt;" style="text;strokeColor=none;align=center;fillColor=none;html=1;verticalAlign=middle;whiteSpace=wrap;rounded=0;" vertex="1" parent="1">
          <mxGeometry x="334" y="129" width="100" height="30" as="geometry" />
        </mxCell>
        <mxCell id="Szl8Kn3uwm4iU1-1oAH0-31" value="&lt;div style=&quot;box-sizing: inherit; display: flex; flex: 0 1 auto; font-family: Metropolis, &amp;quot;Avenir Next&amp;quot;, &amp;quot;Helvetica Neue&amp;quot;, Arial, sans-serif; text-align: start; background-color: rgb(250, 250, 250);&quot; class=&quot;titles&quot;&gt;&lt;pre style=&quot;box-sizing: inherit; margin: 0px 0.3rem; font-family: var(--clr-h1-font-family,Metropolis,&amp;quot;Avenir Next&amp;quot;,&amp;quot;Helvetica Neue&amp;quot;,Arial,sans-serif); font-weight: var(--clr-h1-font-weight,200); line-height: 1.2rem; color: var(--clr-h1-color,#000); overflow: hidden; word-break: break-word;&quot;&gt;&lt;font style=&quot;font-size: 10px;&quot;&gt;U-UAG-VMC1-02&lt;/font&gt;&lt;/pre&gt;&lt;div style=&quot;font-size: 14px;&quot;&gt;&lt;br&gt;&lt;/div&gt;&lt;/div&gt;&lt;div style=&quot;box-sizing: inherit; display: flex; align-items: center; font-family: Metropolis, &amp;quot;Avenir Next&amp;quot;, &amp;quot;Helvetica Neue&amp;quot;, Arial, sans-serif; font-size: 14px; text-align: start; background-color: rgb(250, 250, 250);&quot; class=&quot;quick-operations-container ng-star-inserted&quot;&gt;&lt;/div&gt;" style="text;strokeColor=none;align=center;fillColor=none;html=1;verticalAlign=middle;whiteSpace=wrap;rounded=0;" vertex="1" parent="1">
          <mxGeometry x="331" y="302" width="100" height="30" as="geometry" />
        </mxCell>
        <mxCell id="Szl8Kn3uwm4iU1-1oAH0-32" value="&lt;div style=&quot;box-sizing: inherit; display: flex; flex: 0 1 auto; font-family: Metropolis, &amp;quot;Avenir Next&amp;quot;, &amp;quot;Helvetica Neue&amp;quot;, Arial, sans-serif; text-align: start; background-color: rgb(250, 250, 250);&quot; class=&quot;titles&quot;&gt;&lt;pre style=&quot;box-sizing: inherit; margin: 0px 0.3rem; font-family: var(--clr-h1-font-family,Metropolis,&amp;quot;Avenir Next&amp;quot;,&amp;quot;Helvetica Neue&amp;quot;,Arial,sans-serif); font-weight: var(--clr-h1-font-weight,200); line-height: 1.2rem; color: var(--clr-h1-color,#000); overflow: hidden; word-break: break-word;&quot;&gt;&lt;font style=&quot;font-size: 10px;&quot;&gt;U-UAG-VMC1-02&lt;/font&gt;&lt;/pre&gt;&lt;div style=&quot;font-size: 14px;&quot;&gt;&lt;br&gt;&lt;/div&gt;&lt;/div&gt;&lt;div style=&quot;box-sizing: inherit; display: flex; align-items: center; font-family: Metropolis, &amp;quot;Avenir Next&amp;quot;, &amp;quot;Helvetica Neue&amp;quot;, Arial, sans-serif; font-size: 14px; text-align: start; background-color: rgb(250, 250, 250);&quot; class=&quot;quick-operations-container ng-star-inserted&quot;&gt;&lt;/div&gt;" style="text;strokeColor=none;align=center;fillColor=none;html=1;verticalAlign=middle;whiteSpace=wrap;rounded=0;" vertex="1" parent="1">
          <mxGeometry x="561.25" y="50" width="100" height="30" as="geometry" />
        </mxCell>
        <mxCell id="Szl8Kn3uwm4iU1-1oAH0-33" value="&lt;div style=&quot;box-sizing: inherit; display: flex; flex: 0 1 auto; font-family: Metropolis, &amp;quot;Avenir Next&amp;quot;, &amp;quot;Helvetica Neue&amp;quot;, Arial, sans-serif; text-align: start; background-color: rgb(250, 250, 250);&quot; class=&quot;titles&quot;&gt;&lt;pre style=&quot;box-sizing: inherit; margin: 0px 0.3rem; font-family: var(--clr-h1-font-family,Metropolis,&amp;quot;Avenir Next&amp;quot;,&amp;quot;Helvetica Neue&amp;quot;,Arial,sans-serif); font-weight: var(--clr-h1-font-weight,200); line-height: 1.2rem; color: var(--clr-h1-color,#000); overflow: hidden; word-break: break-word;&quot;&gt;&lt;font style=&quot;font-size: 10px;&quot;&gt;U-UAG-VMC1-02&lt;/font&gt;&lt;/pre&gt;&lt;div style=&quot;font-size: 14px;&quot;&gt;&lt;br&gt;&lt;/div&gt;&lt;/div&gt;&lt;div style=&quot;box-sizing: inherit; display: flex; align-items: center; font-family: Metropolis, &amp;quot;Avenir Next&amp;quot;, &amp;quot;Helvetica Neue&amp;quot;, Arial, sans-serif; font-size: 14px; text-align: start; background-color: rgb(250, 250, 250);&quot; class=&quot;quick-operations-container ng-star-inserted&quot;&gt;&lt;/div&gt;" style="text;strokeColor=none;align=center;fillColor=none;html=1;verticalAlign=middle;whiteSpace=wrap;rounded=0;" vertex="1" parent="1">
          <mxGeometry x="561.25" y="390" width="100" height="30" as="geometry" />
        </mxCell>
        <mxCell id="Szl8Kn3uwm4iU1-1oAH0-34" value="&lt;div style=&quot;box-sizing: inherit; display: flex; flex: 0 1 auto; font-family: Metropolis, &amp;quot;Avenir Next&amp;quot;, &amp;quot;Helvetica Neue&amp;quot;, Arial, sans-serif; text-align: start; background-color: rgb(250, 250, 250);&quot; class=&quot;titles&quot;&gt;&lt;div style=&quot;&quot;&gt;&lt;span style=&quot;font-size: 10px; white-space: pre;&quot;&gt;Horizon-UAT.Sai360.Local&lt;/span&gt;&lt;/div&gt;&lt;/div&gt;&lt;div style=&quot;box-sizing: inherit; display: flex; align-items: center; font-family: Metropolis, &amp;quot;Avenir Next&amp;quot;, &amp;quot;Helvetica Neue&amp;quot;, Arial, sans-serif; font-size: 14px; text-align: start; background-color: rgb(250, 250, 250);&quot; class=&quot;quick-operations-container ng-star-inserted&quot;&gt;&lt;/div&gt;" style="text;strokeColor=none;align=center;fillColor=none;html=1;verticalAlign=middle;whiteSpace=wrap;rounded=0;" vertex="1" parent="1">
          <mxGeometry x="133" y="260.5" width="140" height="30" as="geometry" />
        </mxCell>
        <mxCell id="Szl8Kn3uwm4iU1-1oAH0-35" value="&lt;div style=&quot;box-sizing: inherit; display: flex; flex: 0 1 auto; font-family: Metropolis, &amp;quot;Avenir Next&amp;quot;, &amp;quot;Helvetica Neue&amp;quot;, Arial, sans-serif; text-align: start; background-color: rgb(250, 250, 250);&quot; class=&quot;titles&quot;&gt;&lt;pre style=&quot;box-sizing: inherit; margin: 0px 0.3rem; font-family: var(--clr-h1-font-family,Metropolis,&amp;quot;Avenir Next&amp;quot;,&amp;quot;Helvetica Neue&amp;quot;,Arial,sans-serif); font-weight: var(--clr-h1-font-weight,200); line-height: 1.2rem; color: var(--clr-h1-color,#000); overflow: hidden; word-break: break-word;&quot;&gt;&lt;font style=&quot;font-size: 10px;&quot;&gt;U-UAG-VMC1-02&lt;/font&gt;&lt;/pre&gt;&lt;div style=&quot;font-size: 14px;&quot;&gt;&lt;br&gt;&lt;/div&gt;&lt;/div&gt;&lt;div style=&quot;box-sizing: inherit; display: flex; align-items: center; font-family: Metropolis, &amp;quot;Avenir Next&amp;quot;, &amp;quot;Helvetica Neue&amp;quot;, Arial, sans-serif; font-size: 14px; text-align: start; background-color: rgb(250, 250, 250);&quot; class=&quot;quick-operations-container ng-star-inserted&quot;&gt;&lt;/div&gt;" style="text;strokeColor=none;align=center;fillColor=none;html=1;verticalAlign=middle;whiteSpace=wrap;rounded=0;" vertex="1" parent="1">
          <mxGeometry x="485" y="260" width="100" height="30" as="geometry" />
        </mxCell>
      </root>
    </mxGraphModel>
  </diagram>
</mxfile>
